----------------------------------------------------------------------------
** PLEASE BE ADVICED: DO NOT DOWNLOAD THIS IF YOU CAN'T SPEAK/READ GREEK **
----------------------------------------------------------------------------

------------------------------------------------------
** The movie contain GREEK -HARDSUBBED- subtitles! **
------------------------------------------------------

General
Complete name                            : Night.Of.The.Living.Dead.1968.DVDRip.x264-GRRiPS.mp4
Format                                   : MPEG-4
Format profile                           : Base Media
Codec ID                                 : isom
File size                                : 799 MiB
Duration                                 : 1h 36mn
Overall bit rate mode                    : Variable
Overall bit rate                         : 1 162 Kbps

Video
ID                                       : 1
Format                                   : AVC
Format/Info                              : Advanced Video Codec
Format profile                           : High@L4.0
Format settings, CABAC                   : Yes
Format settings, ReFrames                : 3 frames
Codec ID                                 : avc1
Codec ID/Info                            : Advanced Video Coding
Duration                                 : 1h 36mn
Bit rate mode                            : Variable
Bit rate                                 : 1 031 Kbps
Maximum bit rate                         : 25.0 Mbps
Width                                    : 692 pixels
Height                                   : 558 pixels
Display aspect ratio                     : 5:4
Frame rate mode                          : Constant
Frame rate                               : 25.000 fps
Color space                              : YUV
Chroma subsampling                       : 4:2:0
Bit depth                                : 8 bits
Scan type                                : Progressive
Bits/(Pixel*Frame)                       : 0.107
Stream size                              : 709 MiB (89%)
Writing library                          : x264 core 129 r2245 bc13772

Audio
ID                                       : 2
Format                                   : AAC
Format/Info                              : Advanced Audio Codec
Format profile                           : LC
Codec ID                                 : 40
Duration                                 : 1h 36mn
Bit rate mode                            : Variable
Bit rate                                 : 128 Kbps
Maximum bit rate                         : 136 Kbps
Channel(s)                               : 2 channels
Channel positions                        : Front: L R
Sampling rate                            : 48.0 KHz
Compression mode                         : Lossy
Stream size                              : 88.1 MiB (11%)

DIKO MOU RIP.

FULL SCREENSHOT: 
http://bayimg.com/FanJAAaEc

KALH PROBOLH KAI S E E D ! ! ! !

-------------------------------------------------------
|PERISSOTERA/MORE: https://thepiratebay.sx/user/GRRiPS|
-------------------------------------------------------